<?xml version="1.0" encoding="UTF-8" standalone="no"?>
<!-- Created with Inkscape (http://www.inkscape.org/) -->

<svg
   xmlns:dc="http://purl.org/dc/elements/1.1/"
   xmlns:cc="http://creativecommons.org/ns#"
   xmlns:rdf="http://www.w3.org/1999/02/22-rdf-syntax-ns#"
   xmlns:svg="http://www.w3.org/2000/svg"
   xmlns="http://www.w3.org/2000/svg"
   xmlns:sodipodi="http://sodipodi.sourceforge.net/DTD/sodipodi-0.dtd"
   xmlns:inkscape="http://www.inkscape.org/namespaces/inkscape"
   width="64px"
   height="64px"
   viewBox="0 0 64 64"
   version="1.1"
   id="SVGRoot"
   inkscape:version="0.92.1 r15371"
   sodipodi:docname="logo-solid.svg">
  <sodipodi:namedview
     id="base"
     pagecolor="#ffffff"
     bordercolor="#666666"
     borderopacity="1.0"
     inkscape:pageopacity="0.0"
     inkscape:pageshadow="2"
     inkscape:zoom="4"
     inkscape:cx="32"
     inkscape:cy="32"
     inkscape:document-units="px"
     inkscape:current-layer="layer1"
     showgrid="false"
     inkscape:window-width="2560"
     inkscape:window-height="1330"
     inkscape:window-x="-12"
     inkscape:window-y="-12"
     inkscape:window-maximized="1"
     inkscape:grid-bbox="true" />
  <defs
     id="defs5782" />
  <metadata
     id="metadata5785">
    <rdf:RDF>
      <cc:Work
         rdf:about="">
        <dc:format>image/svg+xml</dc:format>
        <dc:type
           rdf:resource="http://purl.org/dc/dcmitype/StillImage" />
        <dc:title></dc:title>
      </cc:Work>
    </rdf:RDF>
  </metadata>
  <g
     id="layer1"
     inkscape:groupmode="layer"
     inkscape:label="Layer 1">
    <g
       transform="matrix(1.7348511,0,0,1.7348511,-121.84487,-155.51872)"
       id="g4651">
      <path
         style="fill:#333333;fill-opacity:1;stroke:none;stroke-width:1;stroke-miterlimit:4;stroke-dasharray:none;stroke-opacity:1"
         d="m 77.694157,102.16464 c 0.88646,3.54212 -0.356501,7.63189 1.851656,10.79641 1.487518,1.64564 3.853519,1.06841 5.807392,1.20036 2.800008,8e-5 5.698789,-0.5793 8.437856,0.0789 -0.683907,1.25715 -2.810248,0.37004 -1.557959,-1.04242 1.034087,-2.21833 1.986727,-4.45726 2.533693,-6.84782 0.84045,-3.07942 1.070665,-6.856177 3.923601,-8.844607 2.060504,-1.150729 4.565204,-1.43581 6.872994,-1.075051 2.16231,1.436674 -2.21093,2.77335 -3.53409,2.587635 -0.69406,0.09868 -3.947334,-0.460153 -2.259644,-0.776884 0.04979,2.048707 -0.988375,4.256887 -1.41975,6.353807 -1.007234,3.25239 -1.951761,6.60531 -3.620322,9.57913 -2.361477,2.79103 -6.417183,2.50035 -9.697082,2.23278 -2.486026,-0.60984 -4.93557,0.63079 -7.36267,0.15292 -2.435816,-0.97132 -2.667908,-4.08639 -2.894587,-6.34447 -0.282009,-2.53381 -1.440971,-5.95256 1.438536,-7.53917 0.463093,-0.24654 0.96267,-0.42436 1.480376,-0.51151 z"
         id="path4639"
         inkscape:connector-curvature="0" />
      <path
         style="fill:#333333;fill-opacity:1;stroke:none;stroke-width:1;stroke-miterlimit:4;stroke-dasharray:none;stroke-opacity:1"
         d="m 80.228989,116.07064 c -2.478602,1.34367 3.077322,2.82657 0.01255,2.89681 -1.245294,-0.006 -1.214541,-1.84364 -2.084705,-1.96009 0.444392,-0.7481 2.952198,-1.34587 1.174281,-0.1906 -1.670993,1.16098 -2.767932,-0.41932 -0.740006,-1.20326 1.357541,-1.14615 4.232999,-1.16251 4.331093,1.10122 0.144333,2.25267 -2.335264,3.60973 -4.281035,3.8366 -2.678866,0.58985 -3.127482,-3.08383 -0.626204,-3.60668 0.765152,-0.21266 1.521619,-0.47404 2.214026,-0.874 z"
         id="path4641"
         inkscape:connector-curvature="0" />
      <path
         style="fill:#333333;fill-opacity:1;stroke:none;stroke-width:1;stroke-miterlimit:4;stroke-dasharray:none;stroke-opacity:1"
         d="m 89.30687,117.46472 c 1.014207,-0.83595 2.856619,-1.57046 2.045111,0.35684 1.40064,-0.23482 1.697533,1.10308 0.21862,1.11237 -1.641026,-0.19957 -0.653087,-3.09419 -2.715902,-2.37294 0.857662,-0.35577 2.182835,-1.32894 0.336695,-0.73645 0.624572,-1.28544 3.378816,-2.41468 4.638417,-0.81028 1.431254,1.5212 0.427537,4.1525 -1.479515,4.70828 -1.36619,1.12157 -4.357219,1.36235 -4.603079,-0.92667 -0.07093,-1.75479 2.049087,-3.31257 3.580886,-2.98007 -0.571202,0.65033 -1.416431,1.02284 -2.021233,1.64892 z"
         id="path4643"
         inkscape:connector-curvature="0" />
      <path
         style="fill:#333333;fill-opacity:1;stroke:none;stroke-width:1;stroke-miterlimit:4;stroke-dasharray:none;stroke-opacity:1"
         d="m 78.138302,103.17963 c 6.237901,0.6887 12.522259,0.41898 18.783829,0.5296 -1.592405,2.65367 -5.04531,2.53997 -7.745411,2.32421 -3.524489,-0.21292 -7.05708,0.0267 -10.580375,-0.15999 -1.464566,0.19459 -3.831017,-1.08931 -1.384474,-2.04891 0.370237,-0.11377 0.662055,-0.37593 0.926431,-0.64491 z"
         id="path4645"
         inkscape:connector-curvature="0" />
    </g>
  </g>
</svg>
